# xmcd
#
# Track frame offsets:
#	150
#	12945
#	23202
#	37062
#	50102
#	65817
#	87530
#	98387
#	110470
#	128705
#	142730
#	151097
#	162247
#	189550
#	207757
#
# Disc length: 2951 seconds
#
# Revision: 2
# Processed by: cddbd v1.5.2PL0 Copyright (c) Steve Scherf et al.
# Submitted via: audiograbber 1.83.01
#
DISCID=c50b850f
DTITLE=Various Artist - Tales Of God, Mom and Country - 30 Homespun and Heartfelt 
DTITLE=Narrative Recordings  [CD2)
DYEAR=1900
DGENRE=Oldies
TTITLE0=Archie Campbell - Trouble In The Amen Corner
TTITLE1=Walter Brennan - The Farmer And The Lord
TTITLE2=Cristy Lane - Footprints In The Sand
TTITLE3=Tex Ritter - The Touch Of The Master's Hand
TTITLE4=Jud Strunk - My Country
TTITLE5=Tex Ritter - The Americans (A Canadian's Opinion)
TTITLE6=Minnie Pearl - What Is An American
TTITLE7=Senator Everett McKinley Dirksen - Gallant Men
TTITLE8=Bill Anderson - Where Have All The Heroes Gone
TTITLE9=Eddy Arnold - A Part Of America Died
TTITLE10=Walter Brennan - Who Will Take Grandma
TTITLE11=Ralph Emery - Hello Fool
TTITLE12=Johnny Standley - It's All In The Book - Part 1 and 2
TTITLE13=Burl Ives - This Is All I Ask
TTITLE14=Bill Anderson - Drinking From My Saucer
EXTD=CD2
EXTT0=
EXTT1=
EXTT2=
EXTT3=
EXTT4=
EXTT5=
EXTT6=
EXTT7=
EXTT8=
EXTT9=
EXTT10=
EXTT11=
EXTT12=
EXTT13=
EXTT14=
PLAYORDER=
